<svg width="36" height="36" viewBox="0 0 36 36" fill="none" xmlns="http://www.w3.org/2000/svg">
    <path
        d="M24.7344 3.35352C26.1011 1.98682 28.3168 1.98694 29.6836 3.35352L32.6465 6.31641C34.0131 7.68324 34.0132 9.89886 32.6465 11.2656L26.2656 17.6465C26.0704 17.8417 26.0704 18.1583 26.2656 18.3535L32.6465 24.7344C34.0132 26.1011 34.0131 28.3168 32.6465 29.6836L29.6836 32.6465C28.3168 34.0131 26.1011 34.0132 24.7344 32.6465L18.3535 26.2656C18.1583 26.0704 17.8417 26.0704 17.6465 26.2656L11.2656 32.6465C9.89887 34.0132 7.68324 34.0131 6.31641 32.6465L3.35352 29.6836C1.98694 28.3168 1.98682 26.1011 3.35352 24.7344L9.73438 18.3535C9.92956 18.1583 9.92956 17.8417 9.73438 17.6465L3.35352 11.2656C1.98682 9.89887 1.98694 7.68324 3.35352 6.31641L6.31641 3.35352C7.68324 1.98694 9.89886 1.98682 11.2656 3.35352L17.6465 9.73438C17.8417 9.92956 18.1583 9.92956 18.3535 9.73438L24.7344 3.35352Z"
        stroke="#38469E" stroke-opacity="0.7" stroke-width="3" />
    <path
        d="M24.7344 3.35352C26.1011 1.98682 28.3168 1.98694 29.6836 3.35352L32.6465 6.31641C34.0131 7.68324 34.0132 9.89886 32.6465 11.2656L26.2656 17.6465C26.0704 17.8417 26.0704 18.1583 26.2656 18.3535L32.6465 24.7344C34.0132 26.1011 34.0131 28.3168 32.6465 29.6836L29.6836 32.6465C28.3168 34.0131 26.1011 34.0132 24.7344 32.6465L18.3535 26.2656C18.1583 26.0704 17.8417 26.0704 17.6465 26.2656L11.2656 32.6465C9.89887 34.0132 7.68324 34.0131 6.31641 32.6465L3.35352 29.6836C1.98694 28.3168 1.98682 26.1011 3.35352 24.7344L9.73438 18.3535C9.92956 18.1583 9.92956 17.8417 9.73438 17.6465L3.35352 11.2656C1.98682 9.89887 1.98694 7.68324 3.35352 6.31641L6.31641 3.35352C7.68324 1.98694 9.89886 1.98682 11.2656 3.35352L17.6465 9.73438C17.8417 9.92956 18.1583 9.92956 18.3535 9.73438L24.7344 3.35352Z"
        stroke="url(#paint0_linear_1_18)" stroke-opacity="0.9" stroke-width="3"
        style="mix-blend-mode:overlay" />
    <path
        d="M31.5858 10.205C32.3668 9.424 32.3668 8.15767 31.5858 7.37662L28.6234 4.41421C27.8423 3.63317 26.576 3.63317 25.795 4.41421L19.4142 10.795C18.6332 11.576 17.3668 11.576 16.5858 10.795L10.205 4.41421C9.424 3.63316 8.15767 3.63316 7.37662 4.41421L4.41421 7.37662C3.63317 8.15767 3.63317 9.424 4.41421 10.205L10.795 16.5858C11.576 17.3668 11.576 18.6332 10.795 19.4142L4.41421 25.795C3.63316 26.576 3.63317 27.8423 4.41421 28.6234L7.37662 31.5858C8.15767 32.3668 9.424 32.3668 10.205 31.5858L16.5858 25.205C17.3668 24.424 18.6332 24.424 19.4142 25.205L25.795 31.5858C26.576 32.3668 27.8423 32.3668 28.6234 31.5858L31.5858 28.6234C32.3668 27.8423 32.3668 26.576 31.5858 25.795L25.205 19.4142C24.424 18.6332 24.424 17.3668 25.205 16.5858L31.5858 10.205Z"
        fill="#FF6262" />
    <path
        d="M31.5858 10.205C32.3668 9.424 32.3668 8.15767 31.5858 7.37662L28.6234 4.41421C27.8423 3.63317 26.576 3.63317 25.795 4.41421L19.4142 10.795C18.6332 11.576 17.3668 11.576 16.5858 10.795L10.205 4.41421C9.424 3.63316 8.15767 3.63316 7.37662 4.41421L4.41421 7.37662C3.63317 8.15767 3.63317 9.424 4.41421 10.205L10.795 16.5858C11.576 17.3668 11.576 18.6332 10.795 19.4142L4.41421 25.795C3.63316 26.576 3.63317 27.8423 4.41421 28.6234L7.37662 31.5858C8.15767 32.3668 9.424 32.3668 10.205 31.5858L16.5858 25.205C17.3668 24.424 18.6332 24.424 19.4142 25.205L25.795 31.5858C26.576 32.3668 27.8423 32.3668 28.6234 31.5858L31.5858 28.6234C32.3668 27.8423 32.3668 26.576 31.5858 25.795L25.205 19.4142C24.424 18.6332 24.424 17.3668 25.205 16.5858L31.5858 10.205Z"
        fill="url(#paint1_linear_1_18)" fill-opacity="0.25" style="mix-blend-mode:soft-light" />
    <path
        d="M26.502 5.12109C26.8924 4.73071 27.5255 4.73083 27.916 5.12109L30.8789 8.08398C31.2692 8.47451 31.2693 9.1076 30.8789 9.49805L24.498 15.8789C23.3266 17.0505 23.3266 18.9495 24.498 20.1211L30.8789 26.502C31.2693 26.8924 31.2692 27.5255 30.8789 27.916L27.916 30.8789C27.5255 31.2692 26.8924 31.2693 26.502 30.8789L20.1211 24.498C18.9495 23.3266 17.0505 23.3266 15.8789 24.498L9.49805 30.8789C9.1076 31.2693 8.47451 31.2692 8.08398 30.8789L5.12109 27.916C4.73083 27.5255 4.73071 26.8924 5.12109 26.502L11.502 20.1211C12.6734 18.9495 12.6734 17.0505 11.502 15.8789L5.12109 9.49805C4.73071 9.1076 4.73083 8.47451 5.12109 8.08398L8.08398 5.12109C8.47451 4.73083 9.1076 4.73071 9.49805 5.12109L15.8789 11.502C17.0505 12.6734 18.9495 12.6734 20.1211 11.502L26.502 5.12109Z"
        stroke="url(#paint2_linear_1_18)" stroke-opacity="0.9" stroke-width="2"
        style="mix-blend-mode:soft-light" />
    <defs>
        <linearGradient id="paint0_linear_1_18" x1="18" y1="3" x2="18" y2="33"
            gradientUnits="userSpaceOnUse">
            <stop stop-opacity="0.2" />
            <stop offset="1" stop-opacity="0.25" />
        </linearGradient>
        <linearGradient id="paint1_linear_1_18" x1="15" y1="6" x2="15" y2="30"
            gradientUnits="userSpaceOnUse">
            <stop />
            <stop offset="1" stop-color="white" stop-opacity="0" />
        </linearGradient>
        <linearGradient id="paint2_linear_1_18" x1="15" y1="6" x2="15" y2="30"
            gradientUnits="userSpaceOnUse">
            <stop stop-color="white" />
            <stop offset="1" stop-opacity="0.7" />
        </linearGradient>
    </defs>
</svg>
    