<svg width="96" height="96" viewBox="0 0 96 96" fill="none" xmlns="http://www.w3.org/2000/svg">
<g clip-path="url(#clip0_201_7102)">
<path fill-rule="evenodd" clip-rule="evenodd" d="M29.3554 82.5347C28.843 82.3974 28.4062 82.0622 28.141 81.6029L12.9694 55.3249C12.7042 54.8656 12.6323 54.3197 12.7696 53.8073L18.9292 30.8192C19.0665 30.3069 19.4017 29.87 19.8611 29.6048L46.139 14.4333C46.5984 14.168 47.1443 14.0962 47.6566 14.2335L70.6447 20.3931C71.1571 20.5304 71.5939 20.8656 71.8591 21.3249L87.0307 47.6029C87.2959 48.0622 87.3678 48.6081 87.2305 49.1205L81.0709 72.1086C80.9336 72.6209 80.5984 73.0578 80.139 73.323L53.8611 88.4946C53.4017 88.7598 52.8558 88.8316 52.3434 88.6944L29.3554 82.5347ZM59.5 67.9184C68.5876 62.6717 71.7012 51.0515 66.4545 41.9639C61.2078 32.8763 49.5876 29.7627 40.5 35.0094C31.4125 40.2561 28.2989 51.8763 33.5456 60.9639C38.7923 70.0515 50.4125 73.1651 59.5 67.9184Z" fill="#68848F"/>
<path fill-rule="evenodd" clip-rule="evenodd" d="M26.409 82.6029L11.2375 56.3249C10.707 55.4062 10.5633 54.3144 10.8379 53.2897L16.9975 30.3016C17.2721 29.2769 17.9425 28.4032 18.8612 27.8728L45.1391 12.7012C46.0579 12.1708 47.1497 12.027 48.1744 12.3016L71.1625 18.4612C72.1872 18.7358 73.0608 19.4062 73.5913 20.3249L88.7629 46.6029C89.2933 47.5216 89.437 48.6134 89.1625 49.6381L83.0028 72.6262C82.7283 73.6509 82.0579 74.5246 81.1391 75.055L54.8612 90.2266C53.9425 90.757 52.8506 90.9008 51.8259 90.6262L28.8379 84.4666C27.8131 84.192 26.9395 83.5216 26.409 82.6029ZM58.5002 66.1863C66.6311 61.4919 69.417 51.0949 64.7226 42.9639C60.0282 34.8329 49.6311 32.047 41.5002 36.7415C33.3692 41.4359 30.5833 51.8329 35.2777 59.9639C39.9721 68.0949 50.3692 70.8807 58.5002 66.1863ZM28.1411 81.6029C28.4063 82.0622 28.8431 82.3974 29.3555 82.5347L52.3436 88.6944C52.8559 88.8316 53.4018 88.7598 53.8612 88.4946L80.1391 73.323C80.5985 73.0578 80.9337 72.6209 81.071 72.1086L87.2306 49.1205C87.3679 48.6081 87.296 48.0622 87.0308 47.6029L71.8592 21.3249C71.594 20.8656 71.1572 20.5304 70.6448 20.3931L47.6568 14.2334C47.1444 14.0962 46.5985 14.168 46.1391 14.4332L19.8612 29.6048C19.4018 29.87 19.0666 30.3069 18.9293 30.8192L12.7697 53.8073C12.6324 54.3197 12.7043 54.8656 12.9695 55.3249L28.1411 81.6029ZM66.4546 41.9639C71.7013 51.0515 68.5877 62.6717 59.5002 67.9184C50.4126 73.1651 38.7924 70.0515 33.5457 60.9639C28.299 51.8763 31.4126 40.2561 40.5002 35.0094C49.5877 29.7627 61.2079 32.8763 66.4546 41.9639Z" fill="#1B343E"/>
<path d="M12.7696 53.8073L18.9292 30.8192C19.0665 30.3069 19.4017 29.87 19.8611 29.6048L33 22.019L40.5 35.0094C31.4125 40.2561 28.2989 51.8763 33.5456 60.9639L12.9694 55.3249C12.7042 54.8656 12.6323 54.3197 12.7696 53.8073Z" fill="#44626D"/>
<path d="M28.5552 82.3203L24.5552 75.3921L49.1436 81.9805L53.1436 88.9088L28.5552 82.3203Z" fill="#A7C2CD"/>
<path d="M71.8595 21.3251L87.031 47.6031C87.2963 48.0624 87.3681 48.6083 87.2308 49.1207L81.0712 72.1088L69.002 51.2043C68.9619 48.0597 68.1392 44.8814 66.4549 41.9641L71.8595 21.3251Z" fill="#44626D"/>
<path fill-rule="evenodd" clip-rule="evenodd" d="M25.3554 75.6065C24.843 75.4692 24.4062 75.134 24.141 74.6746L8.96939 48.3967C8.70417 47.9373 8.6323 47.3914 8.76959 46.8791L14.9292 23.891C15.0665 23.3787 15.4017 22.9418 15.8611 22.6766L42.139 7.50503C42.5984 7.23981 43.1443 7.16795 43.6566 7.30523L66.6447 13.4649C67.1571 13.6021 67.5939 13.9373 67.8591 14.3967L83.0307 40.6747C83.2959 41.134 83.3678 41.6799 83.2305 42.1923L77.0709 65.1803C76.9336 65.6927 76.5984 66.1295 76.139 66.3948L49.8611 81.5663C49.4017 81.8315 48.8558 81.9034 48.3434 81.7661L25.3554 75.6065ZM55.5 60.9902C64.5876 55.7435 67.7012 44.1232 62.4545 35.0357C57.2078 25.9481 45.5876 22.8345 36.5 28.0812C27.4125 33.3279 24.2989 44.9481 29.5456 54.0357C34.7923 63.1232 46.4125 66.2369 55.5 60.9902Z" fill="#A7C2CD"/>
<path fill-rule="evenodd" clip-rule="evenodd" d="M22.409 75.6746L7.23745 49.3967C6.70702 48.478 6.56328 47.3862 6.83785 46.3614L12.9975 23.3734C13.2721 22.3487 13.9425 21.475 14.8612 20.9446L41.1391 5.77298C42.0579 5.24254 43.1497 5.0988 44.1744 5.37338L67.1625 11.533C68.1872 11.8076 69.0608 12.478 69.5913 13.3967L84.7629 39.6746C85.2933 40.5934 85.437 41.6852 85.1625 42.7099L79.0028 65.698C78.7283 66.7227 78.0579 67.5964 77.1391 68.1268L50.8612 83.2984C49.9425 83.8288 48.8506 83.9726 47.8259 83.698L24.8379 77.5383C23.8131 77.2638 22.9395 76.5934 22.409 75.6746ZM54.5002 59.2581C62.6311 54.5637 65.417 44.1667 60.7226 36.0357C56.0282 27.9047 45.6311 25.1188 37.5002 29.8132C29.3692 34.5077 26.5833 44.9047 31.2777 53.0357C35.9721 61.1667 46.3692 63.9525 54.5002 59.2581ZM24.1411 74.6746C24.4063 75.134 24.8431 75.4692 25.3555 75.6065L48.3436 81.7661C48.8559 81.9034 49.4018 81.8315 49.8612 81.5663L76.1391 66.3948C76.5985 66.1295 76.9337 65.6927 77.071 65.1803L83.2306 42.1923C83.3679 41.6799 83.296 41.134 83.0308 40.6746L67.8592 14.3967C67.594 13.9373 67.1572 13.6021 66.6448 13.4649L43.6568 7.30523C43.1444 7.16794 42.5985 7.23981 42.1391 7.50503L15.8612 22.6766C15.4018 22.9418 15.0666 23.3787 14.9293 23.891L8.7697 46.8791C8.63242 47.3914 8.70429 47.9373 8.96951 48.3967L24.1411 74.6746ZM62.4546 35.0357C67.7013 44.1232 64.5877 55.7435 55.5002 60.9902C46.4126 66.2369 34.7924 63.1232 29.5457 54.0357C24.299 44.9481 27.4126 33.3279 36.5002 28.0812C45.5877 22.8345 57.2079 25.9481 62.4546 35.0357Z" fill="#1B343E"/>
<path d="M24.141 74.6746L8.96939 48.3967C8.70417 47.9373 8.6323 47.3914 8.76959 46.8791L14.9292 23.891C15.0665 23.3787 15.4017 22.9418 15.8611 22.6766L42.139 7.50503L36.5 28.0812C27.4125 33.3279 24.2989 44.9481 29.5456 54.0357L24.141 74.6746Z" fill="#B9D4DF"/>
<path d="M29.2321 20.866C29.5082 21.3443 29.3443 21.9559 28.866 22.2321C28.3877 22.5082 27.7761 22.3443 27.5 21.866C27.2239 21.3877 27.3877 20.7761 27.866 20.5C28.3443 20.2239 28.9559 20.3877 29.2321 20.866Z" fill="#D0EBF7"/>
<path d="M32.2321 17.866C32.5082 18.3443 32.3443 18.9559 31.866 19.2321C31.3877 19.5082 30.7761 19.3443 30.5 18.866C30.2239 18.3877 30.3877 17.7761 30.866 17.5C31.3443 17.2239 31.9559 17.3877 32.2321 17.866Z" fill="#D0EBF7"/>
<path d="M36.674 15.6495C36.8811 16.0082 36.7582 16.4669 36.3995 16.674C36.0408 16.8811 35.5821 16.7582 35.375 16.3995C35.1679 16.0408 35.2908 15.5821 35.6495 15.375C36.0082 15.1679 36.4669 15.2908 36.674 15.6495Z" fill="#D0EBF7"/>
<path d="M28.674 18.6495C28.8811 19.0082 28.7582 19.4669 28.3995 19.674C28.0408 19.8811 27.5821 19.7582 27.375 19.3995C27.1679 19.0408 27.2908 18.5821 27.6495 18.375C28.0082 18.1679 28.4669 18.2908 28.674 18.6495Z" fill="#D0EBF7"/>
<path d="M33.2023 22.4162C33.2672 22.6586 33.1233 22.9079 32.8809 22.9729C32.6384 23.0378 32.3892 22.8939 32.3242 22.6514C32.2592 22.409 32.4031 22.1597 32.6456 22.0948C32.8881 22.0298 33.1373 22.1737 33.2023 22.4162Z" fill="#D0EBF7"/>
<path d="M31.9957 20.4391C32.0607 20.6816 31.9168 20.9308 31.6743 20.9958C31.4319 21.0608 31.1826 20.9169 31.1176 20.6744C31.0527 20.4319 31.1966 20.1827 31.439 20.1177C31.6815 20.0527 31.9308 20.1966 31.9957 20.4391Z" fill="#D0EBF7"/>
<path d="M23.9957 21.4391C24.0607 21.6816 23.9168 21.9308 23.6743 21.9958C23.4319 22.0608 23.1826 21.9169 23.1176 21.6744C23.0527 21.4319 23.1966 21.1827 23.439 21.1177C23.6815 21.0527 23.9308 21.1966 23.9957 21.4391Z" fill="#D0EBF7"/>
<path d="M25.9957 21.4391C26.0607 21.6816 25.9168 21.9308 25.6743 21.9958C25.4319 22.0608 25.1826 21.9169 25.1176 21.6744C25.0527 21.4319 25.1966 21.1827 25.439 21.1177C25.6815 21.0527 25.9308 21.1966 25.9957 21.4391Z" fill="#D0EBF7"/>
<path d="M24.9957 23.4391C25.0607 23.6816 24.9168 23.9308 24.6743 23.9958C24.4319 24.0608 24.1826 23.9169 24.1176 23.6744C24.0527 23.4319 24.1966 23.1827 24.439 23.1177C24.6815 23.0527 24.9308 23.1966 24.9957 23.4391Z" fill="#D0EBF7"/>
<path d="M21.9957 22.4391C22.0607 22.6816 21.9168 22.9308 21.6743 22.9958C21.4319 23.0608 21.1826 22.9169 21.1176 22.6744C21.0527 22.4319 21.1966 22.1827 21.439 22.1177C21.6815 22.0527 21.9308 22.1966 21.9957 22.4391Z" fill="#D0EBF7"/>
<path d="M27.9957 24.4391C28.0607 24.6816 27.9168 24.9308 27.6743 24.9958C27.4319 25.0608 27.1826 24.9169 27.1176 24.6744C27.0527 24.4319 27.1966 24.1827 27.439 24.1177C27.6815 24.0527 27.9308 24.1966 27.9957 24.4391Z" fill="#D0EBF7"/>
<path d="M30.9957 22.4391C31.0607 22.6816 30.9168 22.9308 30.6743 22.9958C30.4319 23.0608 30.1826 22.9169 30.1176 22.6744C30.0527 22.4319 30.1966 22.1827 30.439 22.1177C30.6815 22.0527 30.9308 22.1966 30.9957 22.4391Z" fill="#D0EBF7"/>
<path d="M33.9957 14.4391C34.0607 14.6816 33.9168 14.9308 33.6743 14.9958C33.4319 15.0608 33.1826 14.9169 33.1176 14.6744C33.0527 14.4319 33.1966 14.1827 33.439 14.1177C33.6815 14.0527 33.9308 14.1966 33.9957 14.4391Z" fill="#D0EBF7"/>
<path d="M36.9957 12.4391C37.0607 12.6816 36.9168 12.9308 36.6743 12.9958C36.4319 13.0608 36.1826 12.9169 36.1176 12.6744C36.0527 12.4319 36.1966 12.1827 36.439 12.1177C36.6815 12.0527 36.9308 12.1966 36.9957 12.4391Z" fill="#D0EBF7"/>
<path d="M34.9957 19.4391C35.0607 19.6816 34.9168 19.9308 34.6743 19.9958C34.4319 20.0608 34.1826 19.9169 34.1176 19.6744C34.0527 19.4319 34.1966 19.1827 34.439 19.1177C34.6815 19.0527 34.9308 19.1966 34.9957 19.4391Z" fill="#D0EBF7"/>
<path d="M33.9957 16.4391C34.0607 16.6816 33.9168 16.9308 33.6743 16.9958C33.4319 17.0608 33.1826 16.9169 33.1176 16.6744C33.0527 16.4319 33.1966 16.1827 33.439 16.1177C33.6815 16.0527 33.9308 16.1966 33.9957 16.4391Z" fill="#D0EBF7"/>
<path fill-rule="evenodd" clip-rule="evenodd" d="M75.0979 64.3484C74.5644 64.2055 74.2478 63.6572 74.3907 63.1237L80.1399 41.6674L65.8471 16.9114C65.5709 16.4331 65.7348 15.8215 66.2131 15.5453C66.6914 15.2692 67.303 15.4331 67.5791 15.9114L82.0791 41.0261C82.2117 41.2558 82.2476 41.5287 82.179 41.7849L76.3226 63.6413C76.1797 64.1748 75.6313 64.4914 75.0979 64.3484Z" fill="#91ACB7"/>
<path fill-rule="evenodd" clip-rule="evenodd" d="M16.9026 24.723C17.4361 24.8659 17.7527 25.4143 17.6097 25.9477L11.8605 47.404L26.1534 72.16C26.4296 72.6383 26.2657 73.2499 25.7874 73.5261C25.3091 73.8022 24.6975 73.6383 24.4214 73.16L9.92139 48.0453C9.78878 47.8156 9.75284 47.5427 9.82149 47.2865L15.6779 25.4301C15.8208 24.8966 16.3692 24.58 16.9026 24.723Z" fill="#D4EFFB"/>
<path fill-rule="evenodd" clip-rule="evenodd" d="M10.2874 46.6793C10.7657 46.4032 11.3773 46.5671 11.6534 47.0453L14.1534 51.3755C14.4296 51.8538 14.2657 52.4654 13.7874 52.7415C13.3091 53.0176 12.6975 52.8538 12.4214 52.3755L9.92139 48.0453C9.64524 47.5671 9.80912 46.9555 10.2874 46.6793Z" fill="#FAFEFF"/>
<path fill-rule="evenodd" clip-rule="evenodd" d="M36.0003 27.2152C26.4345 32.7381 23.157 44.9699 28.6798 54.5357C34.2027 64.1016 46.4345 67.3791 56.0003 61.8562C65.5662 56.3334 68.8437 44.1016 63.3208 34.5357C57.798 24.9699 45.5662 21.6924 36.0003 27.2152ZM26.9478 55.5357C20.8726 45.0133 24.4779 31.5583 35.0003 25.4832C45.5228 19.408 58.9777 23.0133 65.0529 33.5357C71.128 44.0582 67.5228 57.5131 57.0003 63.5883C46.4779 69.6634 33.0229 66.0582 26.9478 55.5357Z" fill="#CBE1EB"/>
<path fill-rule="evenodd" clip-rule="evenodd" d="M26.8696 35.8133C27.3826 36.0179 27.6326 36.5997 27.428 37.1126C25.5691 41.773 25.4718 47.0876 27.4261 51.9589C27.6317 52.4715 27.3829 53.0537 26.8703 53.2594C26.3578 53.465 25.7755 53.2162 25.5699 52.7036C23.4181 47.3399 23.5275 41.4932 25.5703 36.3717C25.7749 35.8587 26.3566 35.6087 26.8696 35.8133Z" fill="#E1F7FF"/>
<path d="M63.9462 63.6194C64.3604 64.3368 64.1146 65.2542 63.3972 65.6684C62.6797 66.0826 61.7624 65.8368 61.3481 65.1194C60.9339 64.4019 61.1797 63.4845 61.8972 63.0703C62.6146 62.6561 63.532 62.9019 63.9462 63.6194Z" fill="#8DADBA"/>
<path d="M66.6603 60.3202C66.9364 60.7985 66.7725 61.4101 66.2942 61.6863C65.816 61.9624 65.2044 61.7985 64.9282 61.3202C64.6521 60.842 64.816 60.2304 65.2942 59.9542C65.7725 59.6781 66.3841 59.842 66.6603 60.3202Z" fill="#8DADBA"/>
<path d="M72.5885 54.5882C72.8646 55.0665 72.7008 55.6781 72.2225 55.9542C71.7442 56.2304 71.1326 56.0665 70.8564 55.5882C70.5803 55.1099 70.7442 54.4983 71.2225 54.2222C71.7008 53.946 72.3124 54.1099 72.5885 54.5882Z" fill="#8DADBA"/>
<path d="M68.6424 59.7533C68.7805 59.9925 68.6985 60.2983 68.4594 60.4363C68.2202 60.5744 67.9144 60.4925 67.7764 60.2533C67.6383 60.0142 67.7202 59.7084 67.9594 59.5703C68.1985 59.4322 68.5043 59.5142 68.6424 59.7533Z" fill="#8DADBA"/>
<path d="M64.2142 68.0834C64.3522 68.3225 64.2703 68.6283 64.0312 68.7664C63.792 68.9045 63.4862 68.8225 63.3481 68.5834C63.2101 68.3443 63.292 68.0385 63.5312 67.9004C63.7703 67.7623 64.0761 67.8443 64.2142 68.0834Z" fill="#8DADBA"/>
<path d="M60.116 66.9854C60.2541 67.2245 60.1722 67.5303 59.933 67.6684C59.6939 67.8065 59.3881 67.7245 59.25 67.4854C59.1119 67.2462 59.1939 66.9404 59.433 66.8024C59.6722 66.6643 59.978 66.7462 60.116 66.9854Z" fill="#8DADBA"/>
<path d="M58.5179 70.2174C58.656 70.4566 58.574 70.7624 58.3349 70.9004C58.0957 71.0385 57.7899 70.9566 57.6519 70.7174C57.5138 70.4783 57.5957 70.1725 57.8349 70.0344C58.074 69.8964 58.3798 69.9783 58.5179 70.2174Z" fill="#8DADBA"/>
<path d="M52.1878 69.2533C52.3259 69.4925 52.2439 69.7983 52.0048 69.9363C51.7656 70.0744 51.4598 69.9925 51.3218 69.7533C51.1837 69.5142 51.2656 69.2084 51.5048 69.0703C51.7439 68.9322 52.0497 69.0142 52.1878 69.2533Z" fill="#8DADBA"/>
<path d="M71.7405 59.1193C71.8786 59.3584 71.7967 59.6642 71.5575 59.8023C71.3184 59.9404 71.0126 59.8584 70.8745 59.6193C70.7364 59.3801 70.8184 59.0744 71.0575 58.9363C71.2967 58.7982 71.6025 58.8801 71.7405 59.1193Z" fill="#8DADBA"/>
<path d="M70.3382 50.6911C70.4763 50.9302 70.3943 51.236 70.1552 51.3741C69.916 51.5122 69.6102 51.4302 69.4722 51.1911C69.3341 50.9519 69.416 50.6461 69.6552 50.5081C69.8943 50.37 70.2001 50.4519 70.3382 50.6911Z" fill="#8DADBA"/>
<path d="M72.5706 50.5572C72.7087 50.7963 72.6267 51.1021 72.3876 51.2402C72.1485 51.3782 71.8427 51.2963 71.7046 51.0572C71.5665 50.818 71.6485 50.5122 71.8876 50.3741C72.1267 50.2361 72.4325 50.318 72.5706 50.5572Z" fill="#8DADBA"/>
<path d="M70.5706 47.093C70.7087 47.3322 70.6267 47.638 70.3876 47.7761C70.1485 47.9141 69.8427 47.8322 69.7046 47.593C69.5665 47.3539 69.6485 47.0481 69.8876 46.91C70.1267 46.772 70.4325 46.8539 70.5706 47.093Z" fill="#8DADBA"/>
<path d="M70.3922 62.7844C70.6683 63.2627 70.5045 63.8742 70.0262 64.1504C69.5479 64.4265 68.9363 64.2627 68.6602 63.7844C68.384 63.3061 68.5479 62.6945 69.0262 62.4183C69.5045 62.1422 70.1161 62.3061 70.3922 62.7844Z" fill="#8DADBA"/>
<path d="M67.4283 65.6504C67.7045 66.1287 67.5406 66.7403 67.0623 67.0165C66.584 67.2926 65.9724 67.1287 65.6963 66.6504C65.4201 66.1722 65.584 65.5606 66.0623 65.2844C66.5406 65.0083 67.1522 65.1722 67.4283 65.6504Z" fill="#8DADBA"/>
<path d="M56.402 68.5523C56.6781 69.0306 56.5142 69.6422 56.0359 69.9183C55.5577 70.1945 54.9461 70.0306 54.6699 69.5523C54.3938 69.074 54.5577 68.4624 55.0359 68.1863C55.5142 67.9101 56.1258 68.074 56.402 68.5523Z" fill="#8DADBA"/>
<path d="M68.6241 55.7222C68.9003 56.2005 68.7364 56.8121 68.2581 57.0883C67.7798 57.3644 67.1682 57.2005 66.8921 56.7222C66.6159 56.2439 66.7798 55.6323 67.2581 55.3562C67.7364 55.0801 68.348 55.2439 68.6241 55.7222Z" fill="#8DADBA"/>
</g>
<defs>
<clipPath id="clip0_201_7102">
<rect width="96" height="96" fill="white"/>
</clipPath>
</defs>
</svg>
