<svg width="96" height="96" viewBox="0 0 96 96" fill="none" xmlns="http://www.w3.org/2000/svg">
    <path d="M20 25H76V66.3595C76 67.7922 74.5377 68.7602 73.2188 68.2006L49.5624 58.1629C48.5639 57.7393 47.4361 57.7393 46.4376 58.1629L22.7812 68.2006C21.4623 68.7602 20 67.7922 20 66.3595V25Z" fill="#CA425A"/>
    <path fill-rule="evenodd" clip-rule="evenodd" d="M18 25C18 23.8954 18.8954 23 20 23H76C77.1046 23 78 23.8954 78 25V66.3595C78 69.225 75.0754 71.161 72.4376 70.0417L48.7812 60.0041C48.2819 59.7922 47.7181 59.7922 47.2188 60.0041L23.5624 70.0417C20.9246 71.161 18 69.225 18 66.3595V25ZM20 25V66.3595C20 67.7922 21.4623 68.7602 22.7812 68.2006L46.4376 58.1629C47.4361 57.7393 48.5639 57.7393 49.5624 58.1629L73.2188 68.2006C74.5377 68.7602 76 67.7922 76 66.3595V25H20Z" fill="#60040F"/>
    <path d="M76 25H20V29H76V25Z" fill="#98293C"/>
    <path fill-rule="evenodd" clip-rule="evenodd" d="M65.9576 14.4095C65.7637 15.3362 64.9467 16 64 16H32C31.0532 16 30.2362 15.3362 30.0423 14.4095C29.8485 13.4828 30.331 12.5472 31.1983 12.1677L47.1983 5.16769C47.7094 4.9441 48.2906 4.9441 48.8016 5.16769L64.8016 12.1677C65.669 12.5472 66.1514 13.4828 65.9576 14.4095ZM48 7L64 14H32L48 7Z" fill="#60040F"/>
    <path d="M12 19C12 16.7909 13.7909 15 16 15H80C82.2091 15 84 16.7909 84 19C84 21.2091 82.2091 23 80 23H16C13.7909 23 12 21.2091 12 19Z" fill="#E9B145"/>
    <path fill-rule="evenodd" clip-rule="evenodd" d="M16 13H80C83.3137 13 86 15.6863 86 19C86 22.3137 83.3137 25 80 25H16C12.6863 25 10 22.3137 10 19C10 15.6863 12.6863 13 16 13ZM16 15C13.7909 15 12 16.7909 12 19C12 21.2091 13.7909 23 16 23H80C82.2091 23 84 21.2091 84 19C84 16.7909 82.2091 15 80 15H16Z" fill="#60040F"/>
    <path fill-rule="evenodd" clip-rule="evenodd" d="M14 17C14 16.4477 14.4477 16 15 16H80C80.5523 16 81 16.4477 81 17C81 17.5523 80.5523 18 80 18H15C14.4477 18 14 17.5523 14 17Z" fill="#FFCB65"/>
    <path fill-rule="evenodd" clip-rule="evenodd" d="M16 17C16 16.4477 16.4477 16 17 16H34C34.5523 16 35 16.4477 35 17C35 17.5523 34.5523 18 34 18H17C16.4477 18 16 17.5523 16 17Z" fill="#FFEBC5"/>
    <path fill-rule="evenodd" clip-rule="evenodd" d="M23.6402 15.2318C24.0645 15.5854 24.1218 16.2159 23.7682 16.6402L18.7682 22.6402C18.4147 23.0645 17.7841 23.1218 17.3598 22.7682C16.9356 22.4147 16.8782 21.7841 17.2318 21.3598L22.2318 15.3598C22.5854 14.9356 23.2159 14.8782 23.6402 15.2318Z" fill="#D19521"/>
    <path fill-rule="evenodd" clip-rule="evenodd" d="M44.6402 15.2318C45.0645 15.5854 45.1218 16.2159 44.7682 16.6402L39.7682 22.6402C39.4147 23.0645 38.7841 23.1218 38.3598 22.7682C37.9356 22.4147 37.8782 21.7841 38.2318 21.3598L43.2318 15.3598C43.5854 14.9356 44.2159 14.8782 44.6402 15.2318Z" fill="#D19521"/>
    <path fill-rule="evenodd" clip-rule="evenodd" d="M30.6402 15.2318C31.0645 15.5854 31.1218 16.2159 30.7682 16.6402L25.7682 22.6402C25.4147 23.0645 24.7841 23.1218 24.3598 22.7682C23.9356 22.4147 23.8782 21.7841 24.2318 21.3598L29.2318 15.3598C29.5854 14.9356 30.2159 14.8782 30.6402 15.2318Z" fill="#D19521"/>
    <path fill-rule="evenodd" clip-rule="evenodd" d="M51.6402 15.2318C52.0645 15.5854 52.1218 16.2159 51.7682 16.6402L46.7682 22.6402C46.4147 23.0645 45.7841 23.1218 45.3598 22.7682C44.9356 22.4147 44.8782 21.7841 45.2318 21.3598L50.2318 15.3598C50.5854 14.9356 51.2159 14.8782 51.6402 15.2318Z" fill="#D19521"/>
    <path fill-rule="evenodd" clip-rule="evenodd" d="M37.6402 15.2318C38.0645 15.5854 38.1218 16.2159 37.7682 16.6402L32.7682 22.6402C32.4147 23.0645 31.7841 23.1218 31.3598 22.7682C30.9356 22.4147 30.8782 21.7841 31.2318 21.3598L36.2318 15.3598C36.5854 14.9356 37.2159 14.8782 37.6402 15.2318Z" fill="#D19521"/>
    <path fill-rule="evenodd" clip-rule="evenodd" d="M58.6402 15.2318C59.0645 15.5854 59.1218 16.2159 58.7682 16.6402L53.7682 22.6402C53.4147 23.0645 52.7841 23.1218 52.3598 22.7682C51.9356 22.4147 51.8782 21.7841 52.2318 21.3598L57.2318 15.3598C57.5854 14.9356 58.2159 14.8782 58.6402 15.2318Z" fill="#D19521"/>
    <path fill-rule="evenodd" clip-rule="evenodd" d="M65.6402 15.2318C66.0645 15.5854 66.1218 16.2159 65.7682 16.6402L60.7682 22.6402C60.4147 23.0645 59.7841 23.1218 59.3598 22.7682C58.9356 22.4147 58.8782 21.7841 59.2318 21.3598L64.2318 15.3598C64.5854 14.9356 65.2159 14.8782 65.6402 15.2318Z" fill="#D19521"/>
    <path fill-rule="evenodd" clip-rule="evenodd" d="M72.6402 15.2318C73.0645 15.5854 73.1218 16.2159 72.7682 16.6402L67.7682 22.6402C67.4147 23.0645 66.7841 23.1218 66.3598 22.7682C65.9356 22.4147 65.8782 21.7841 66.2318 21.3598L71.2318 15.3598C71.5854 14.9356 72.2159 14.8782 72.6402 15.2318Z" fill="#D19521"/>
    <path fill-rule="evenodd" clip-rule="evenodd" d="M79.6402 15.2318C80.0645 15.5854 80.1218 16.2159 79.7682 16.6402L74.7682 22.6402C74.4147 23.0645 73.7841 23.1218 73.3598 22.7682C72.9356 22.4147 72.8782 21.7841 73.2318 21.3598L78.2318 15.3598C78.5854 14.9356 79.2159 14.8782 79.6402 15.2318Z" fill="#D19521"/>
    <path d="M26 25H70V75.0152C70 76.4742 69.2056 77.8174 67.9271 78.5204L49.9271 88.4164C48.7271 89.0762 47.2729 89.0761 46.0729 88.4164L28.0729 78.5204C26.7944 77.8174 26 76.4742 26 75.0152V25Z" fill="#FF6480"/>
    <path fill-rule="evenodd" clip-rule="evenodd" d="M24 25C24 23.8954 24.8954 23 26 23H70C71.1046 23 72 23.8954 72 25V75.0152C72 77.2037 70.8084 79.2186 68.8906 80.2729L50.8906 90.169C49.0906 91.1586 46.9094 91.1586 45.1094 90.169L27.1094 80.2729C25.1916 79.2186 24 77.2037 24 75.0152V25ZM26 25V75.0152C26 76.4742 26.7944 77.8174 28.0729 78.5204L46.0729 88.4164C47.2729 89.0761 48.7271 89.0761 49.9271 88.4164L67.9271 78.5204C69.2056 77.8174 70 76.4742 70 75.0152V25H26Z" fill="#60040F"/>
    <path d="M68 76C68 76.5523 67.5523 77 67 77C66.4477 77 66 76.5523 66 76C66 75.4477 66.4477 75 67 75C67.5523 75 68 75.4477 68 76Z" fill="#E34864"/>
    <path d="M63 68C63 68.5523 62.5523 69 62 69C61.4477 69 61 68.5523 61 68C61 67.4477 61.4477 67 62 67C62.5523 67 63 67.4477 63 68Z" fill="#E34864"/>
    <path d="M68 65C68 65.5523 67.5523 66 67 66C66.4477 66 66 65.5523 66 65C66 64.4477 66.4477 64 67 64C67.5523 64 68 64.4477 68 65Z" fill="#E34864"/>
    <path d="M56 82C56 82.5523 55.5523 83 55 83C54.4477 83 54 82.5523 54 82C54 81.4477 54.4477 81 55 81C55.5523 81 56 81.4477 56 82Z" fill="#E34864"/>
    <path d="M63 78C63 78.5523 62.5523 79 62 79C61.4477 79 61 78.5523 61 78C61 77.4477 61.4477 77 62 77C62.5523 77 63 77.4477 63 78Z" fill="#E34864"/>
    <path d="M59 78.5C59 79.3284 58.3284 80 57.5 80C56.6716 80 56 79.3284 56 78.5C56 77.6716 56.6716 77 57.5 77C58.3284 77 59 77.6716 59 78.5Z" fill="#E34864"/>
    <path d="M68 70C68 70.5523 67.5523 71 67 71C66.4477 71 66 70.5523 66 70C66 69.4477 66.4477 69 67 69C67.5523 69 68 69.4477 68 70Z" fill="#E34864"/>
    <path d="M61 74C61 74.5523 60.5523 75 60 75C59.4477 75 59 74.5523 59 74C59 73.4477 59.4477 73 60 73C60.5523 73 61 73.4477 61 74Z" fill="#E34864"/>
    <path d="M66 72.5C66 73.3284 65.3284 74 64.5 74C63.6716 74 63 73.3284 63 72.5C63 71.6716 63.6716 71 64.5 71C65.3284 71 66 71.6716 66 72.5Z" fill="#E34864"/>
    <path d="M70 25H26V29H70V25Z" fill="#DA435E"/>
    <path fill-rule="evenodd" clip-rule="evenodd" d="M28 32C28.5523 32 29 32.4477 29 33V74.7925C29 75.1638 29.2057 75.5045 29.5343 75.6775L47.4657 85.1151C47.9545 85.3723 48.1421 85.977 47.8849 86.4657C47.6277 86.9545 47.023 87.1421 46.5343 86.8849L28.6028 77.4473C27.6171 76.9285 27 75.9064 27 74.7925V33C27 32.4477 27.4477 32 28 32Z" fill="#FFABBA"/>
    <path fill-rule="evenodd" clip-rule="evenodd" d="M68 44.25C67.4477 44.25 67 44.6977 67 45.25V55.5C67 56.0523 67.4477 56.5 68 56.5C68.5523 56.5 69 56.0523 69 55.5V45.25C69 44.6977 68.5523 44.25 68 44.25ZM64.1349 78.0343C63.8777 77.5455 63.273 77.3579 62.7843 77.6151L58.0343 80.1151C57.5455 80.3723 57.3579 80.977 57.6151 81.4657C57.8723 81.9545 58.477 82.1421 58.9657 81.8849L63.7157 79.3849C64.2045 79.1277 64.3921 78.523 64.1349 78.0343Z" fill="#FFABBA"/>
    <path fill-rule="evenodd" clip-rule="evenodd" d="M28 44.25C28.5523 44.25 29 44.6977 29 45.25V55.5C29 56.0523 28.5523 56.5 28 56.5C27.4477 56.5 27 56.0523 27 55.5V45.25C27 44.6977 27.4477 44.25 28 44.25ZM31.8651 78.0343C32.1223 77.5455 32.727 77.3579 33.2157 77.6151L37.9657 80.1151C38.4545 80.3723 38.6421 80.977 38.3849 81.4657C38.1277 81.9545 37.523 82.1421 37.0343 81.8849L32.2843 79.3849C31.7955 79.1277 31.6079 78.523 31.8651 78.0343Z" fill="#FFDCDC"/>
    <path d="M62 53C62 61.8366 55.732 69 48 69C40.268 69 34 61.8366 34 53C34 44.1634 40.268 37 48 37C55.732 37 62 44.1634 62 53Z" fill="#FDAEBC"/>
    <path fill-rule="evenodd" clip-rule="evenodd" d="M64 53C64 62.6819 57.0791 71 48 71C38.9209 71 32 62.6819 32 53C32 43.3181 38.9209 35 48 35C57.0791 35 64 43.3181 64 53ZM48 69C55.732 69 62 61.8366 62 53C62 44.1634 55.732 37 48 37C40.268 37 34 44.1634 34 53C34 61.8366 40.268 69 48 69Z" fill="#C83B54"/>
    <path fill-rule="evenodd" clip-rule="evenodd" d="M48 39C41.5021 39 36 45.1289 36 53C36 53.5523 35.5523 54 35 54C34.4477 54 34 53.5523 34 53C34 44.3026 40.1385 37 48 37C48.5523 37 49 37.4477 49 38C49 38.5523 48.5523 39 48 39Z" fill="#FFDCDC"/>
    <path d="M51.0229 46.1642C51.111 45.5534 50.6391 45 50.0219 45H45.9781C45.3609 45 44.889 45.5534 44.9771 46.1642C45.0926 46.9654 45.2447 48.0993 45.3696 49.3046C45.4333 49.919 44.919 50.4333 44.3046 50.3696C43.0993 50.2447 41.9654 50.0926 41.1642 49.9771C40.5534 49.889 40 50.3609 40 50.9781V55.0219C40 55.6391 40.5534 56.111 41.1642 56.0229C41.9654 55.9074 43.0993 55.7553 44.3046 55.6304C44.919 55.5667 45.4333 56.081 45.3696 56.6954C45.2447 57.9007 45.0926 59.0346 44.9771 59.8358C44.889 60.4466 45.3609 61 45.9781 61H50.0219C50.6391 61 51.111 60.4466 51.0229 59.8358C50.9074 59.0346 50.7553 57.9007 50.6304 56.6954C50.5667 56.081 51.081 55.5667 51.6954 55.6304C52.9007 55.7553 54.0346 55.9074 54.8358 56.0229C55.4466 56.111 56 55.6391 56 55.0219V50.9781C56 50.3609 55.4466 49.889 54.8358 49.9771C54.0346 50.0926 52.9007 50.2447 51.6954 50.3696C51.081 50.4333 50.5667 49.919 50.6304 49.3046C50.7553 48.0993 50.9074 46.9654 51.0229 46.1642Z" fill="#FFE9E9"/>
    <path fill-rule="evenodd" clip-rule="evenodd" d="M45.9781 43H50.0219C51.8772 43 53.2616 44.653 53.0024 46.4497C52.9317 46.9404 52.8472 47.5567 52.7642 48.2358C53.4433 48.1528 54.0596 48.0683 54.5503 47.9976C56.347 47.7384 58 49.1228 58 50.9781V55.0219C58 56.8772 56.347 58.2616 54.5503 58.0024C54.0596 57.9317 53.4433 57.8472 52.7642 57.7642C52.8472 58.4433 52.9317 59.0596 53.0024 59.5503C53.2616 61.347 51.8772 63 50.0219 63H45.9781C44.1228 63 42.7384 61.347 42.9976 59.5503C43.0683 59.0596 43.1528 58.4433 43.2358 57.7642C42.5567 57.8472 41.9404 57.9317 41.4497 58.0024C39.653 58.2616 38 56.8772 38 55.0219V50.9781C38 49.1228 39.653 47.7384 41.4497 47.9976C41.9404 48.0683 42.5567 48.1528 43.2358 48.2358C43.1528 47.5567 43.0683 46.9404 42.9976 46.4497C42.7384 44.653 44.1228 43 45.9781 43ZM50.0219 45C50.6391 45 51.111 45.5534 51.0229 46.1642C50.9074 46.9654 50.7553 48.0993 50.6304 49.3046C50.5667 49.919 51.081 50.4333 51.6954 50.3696C52.9007 50.2447 54.0346 50.0926 54.8358 49.9771C55.4466 49.889 56 50.3609 56 50.9781V55.0219C56 55.6391 55.4466 56.111 54.8358 56.0229C54.0346 55.9074 52.9007 55.7553 51.6954 55.6304C51.081 55.5667 50.5667 56.081 50.6304 56.6954C50.7553 57.9007 50.9074 59.0346 51.0229 59.8358C51.111 60.4466 50.6391 61 50.0219 61H45.9781C45.3609 61 44.889 60.4466 44.9771 59.8358C45.0926 59.0346 45.2447 57.9007 45.3696 56.6954C45.4333 56.081 44.919 55.5667 44.3046 55.6304C43.0993 55.7553 41.9654 55.9074 41.1642 56.0229C40.5534 56.111 40 55.6391 40 55.0219V50.9781C40 50.3609 40.5534 49.889 41.1642 49.9771C41.9654 50.0926 43.0993 50.2447 44.3046 50.3696C44.919 50.4333 45.4333 49.919 45.3696 49.3046C45.2447 48.0993 45.0926 46.9654 44.9771 46.1642C44.889 45.5534 45.3609 45 45.9781 45H50.0219Z" fill="#A5243B"/>
    </svg>
    